<svg xmlns="http://www.w3.org/2000/svg" width="1200" height="700" viewBox="0 0 1200 700">
  <defs>
    <linearGradient id="bg" x1="0" y1="0" x2="1" y2="1">
      <stop offset="0" stop-color="#0b111a"/>
      <stop offset="1" stop-color="#070b10"/>
    </linearGradient>
    <linearGradient id="acc" x1="0" y1="0" x2="1" y2="0">
      <stop offset="0" stop-color="#42e1ce" stop-opacity="0.85"/>
      <stop offset="1" stop-color="#42e1ce" stop-opacity="0.10"/>
    </linearGradient>
  </defs>
  <rect width="1200" height="700" fill="url(#bg)"/>
  <circle cx="220" cy="150" r="160" fill="#42e1ce" opacity="0.09"/>
  <circle cx="980" cy="120" r="220" fill="#ffffff" opacity="0.05"/>
  <circle cx="640" cy="620" r="260" fill="#42e1ce" opacity="0.07"/>
  <rect x="80" y="90" width="1040" height="520" rx="40" fill="rgba(255,255,255,0.06)" stroke="rgba(255,255,255,0.12)"/>
  <rect x="120" y="140" width="520" height="26" rx="13" fill="url(#acc)"/>
  <rect x="120" y="190" width="360" height="18" rx="9" fill="rgba(255,255,255,0.12)"/>
  <rect x="120" y="230" width="820" height="14" rx="7" fill="rgba(255,255,255,0.10)"/>
  <rect x="120" y="260" width="760" height="14" rx="7" fill="rgba(255,255,255,0.08)"/>
  <rect x="120" y="290" width="700" height="14" rx="7" fill="rgba(255,255,255,0.07)"/>
  <g opacity="0.9">
    <rect x="120" y="340" width="300" height="220" rx="26" fill="rgba(255,255,255,0.05)" stroke="rgba(255,255,255,0.10)"/>
    <rect x="450" y="340" width="300" height="220" rx="26" fill="rgba(255,255,255,0.05)" stroke="rgba(255,255,255,0.10)"/>
    <rect x="780" y="340" width="300" height="220" rx="26" fill="rgba(255,255,255,0.05)" stroke="rgba(255,255,255,0.10)"/>
    <circle cx="250" cy="420" r="34" fill="#42e1ce" opacity="0.35"/>
    <circle cx="580" cy="420" r="34" fill="#42e1ce" opacity="0.25"/>
    <circle cx="910" cy="420" r="34" fill="#42e1ce" opacity="0.20"/>
  </g>
  <text x="120" y="560" font-family="Inter, ui-sans-serif, system-ui" font-size="44" fill="rgba(255,255,255,0.90)">ERP Interno</text>
  <text x="120" y="605" font-family="Inter, ui-sans-serif, system-ui" font-size="22" fill="rgba(255,255,255,0.62)">Portfolio placeholder image</text>
</svg>